<?xml version="1.0" standalone="no"?>
<!DOCTYPE svg PUBLIC "-//W3C//DTD SVG 20010904//EN"
 "http://www.w3.org/TR/2001/REC-SVG-20010904/DTD/svg10.dtd">
<svg version="1.0" xmlns="http://www.w3.org/2000/svg"
 width="1280.000000pt" height="165.000000pt" viewBox="0 0 1280.000000 165.000000"
 preserveAspectRatio="xMidYMid meet">
<metadata>
Created by potrace 1.16, written by Peter Selinger 2001-2019
</metadata>
<g transform="translate(0.000000,165.000000) scale(0.100000,-0.100000)"
fill="#fff" stroke="none">
<path d="M10410 1348 l0 -252 -27 27 c-16 14 -55 38 -88 53 -50 23 -77 28
-165 32 -127 5 -197 -8 -288 -53 -182 -92 -282 -277 -282 -524 0 -185 41 -299
148 -412 101 -108 220 -159 371 -159 138 0 241 35 317 109 l41 39 18 -59 18
-59 104 0 103 0 0 755 0 755 -135 0 -135 0 0 -252z m-187 -380 c55 -16 121
-80 154 -146 26 -54 28 -65 28 -187 0 -119 -2 -135 -26 -185 -35 -76 -70 -114
-131 -144 -107 -54 -250 -27 -329 61 -120 133 -114 417 12 542 74 74 173 94
292 59z"/>
<path d="M6430 1405 l0 -125 210 0 210 0 0 -595 0 -595 140 0 140 0 0 600 0
600 200 0 200 0 0 120 0 120 -550 0 -550 0 0 -125z"/>
<path d="M803 1485 c-93 -29 -188 -104 -238 -188 -22 -39 -155 -363 -155 -379
0 -5 348 -8 774 -8 l774 0 112 283 c62 155 114 288 117 295 8 18 -1324 16
-1384 -3z"/>
<path d="M2617 1438 c-14 -35 -138 -342 -276 -683 -138 -340 -251 -629 -251
-642 0 -23 1 -23 138 -23 l137 0 65 175 65 175 285 0 285 0 65 -173 66 -172
147 -3 c141 -2 147 -2 147 17 0 11 -124 329 -276 706 l-277 685 -147 0 -148 0
-25 -62z m297 -589 l63 -164 -93 -3 c-51 -1 -138 -1 -193 0 l-99 3 79 210 c44
116 87 233 96 261 l16 52 34 -97 c18 -54 62 -172 97 -262z"/>
<path d="M4902 1401 c-49 -107 -177 -242 -252 -266 -17 -6 -20 -16 -20 -76 l0
-69 75 0 75 0 0 -317 c0 -347 5 -387 57 -472 36 -58 107 -106 180 -121 75 -16
214 -8 283 16 l55 19 3 113 3 112 -24 0 c-14 0 -45 -9 -71 -21 -52 -22 -132
-27 -166 -9 -46 24 -50 58 -50 379 l0 300 138 3 137 3 3 108 3 107 -141 0
-140 0 0 120 0 120 -63 0 -62 0 -23 -49z"/>
<path d="M5846 1195 c-89 -23 -174 -73 -247 -145 -111 -111 -149 -217 -149
-422 0 -145 23 -239 80 -328 69 -108 201 -200 330 -231 83 -19 242 -14 320 10
183 57 319 196 365 372 20 75 20 283 -1 363 -44 170 -173 307 -345 367 -83 29
-265 36 -353 14z m282 -241 c57 -28 100 -74 134 -144 20 -39 23 -61 23 -170 0
-117 -2 -129 -29 -188 -84 -182 -298 -228 -435 -94 -69 67 -94 137 -95 267 -1
167 51 277 155 329 74 37 173 37 247 0z"/>
<path d="M8667 1195 c-110 -28 -203 -93 -273 -191 -61 -85 -93 -174 -103 -288
-22 -231 30 -399 162 -523 110 -104 204 -137 366 -131 132 6 199 30 274 98
l54 49 18 -59 18 -60 114 0 113 0 0 545 0 546 -102 -3 -102 -3 -20 -56 -20
-55 -62 47 c-90 68 -158 91 -279 95 -65 2 -120 -1 -158 -11z m310 -241 c61
-29 96 -68 132 -144 23 -49 26 -67 26 -170 0 -142 -18 -200 -88 -276 -61 -68
-118 -88 -222 -82 -118 8 -191 63 -238 182 -17 40 -21 74 -21 161 -1 125 10
173 57 241 76 114 222 150 354 88z"/>
<path d="M11223 1191 c-169 -48 -304 -190 -359 -377 -13 -43 -17 -93 -17 -184
0 -109 4 -135 27 -204 79 -234 267 -366 521 -366 214 0 383 88 459 238 42 84
45 82 -105 82 l-132 0 -42 -39 c-49 -45 -95 -61 -180 -61 -133 0 -240 94 -270
237 l-7 33 390 0 391 0 7 58 c8 69 -8 198 -34 275 -53 151 -177 266 -331 309
-86 24 -233 23 -318 -1z m242 -212 c81 -20 138 -88 160 -186 l7 -33 -252 0
-251 0 6 23 c15 48 61 121 95 148 62 52 150 69 235 48z"/>
<path d="M7993 1172 c-72 -29 -128 -76 -155 -129 l-25 -50 -23 93 -24 94 -98
0 -98 0 0 -545 0 -545 134 0 135 0 3 328 3 327 29 59 c25 52 35 61 84 84 44
20 77 26 154 30 l99 5 -3 131 -3 131 -85 2 c-61 2 -97 -3 -127 -15z"/>
<path d="M12507 1175 c-71 -26 -167 -115 -167 -154 0 -5 -4 -12 -9 -15 -5 -3
-19 35 -31 84 l-22 90 -99 0 -99 0 0 -545 0 -545 134 0 135 0 3 328 3 327 28
57 c24 49 35 61 83 84 46 22 73 28 155 32 l99 5 0 133 0 134 -87 -1 c-49 0
-105 -7 -126 -14z"/>
<path d="M3560 833 c0 -181 5 -359 10 -398 34 -232 209 -376 460 -376 116 0
176 12 253 53 113 60 193 170 217 297 6 30 10 207 10 402 l0 349 -135 0 -135
0 0 -350 c0 -329 -1 -352 -21 -405 -23 -63 -61 -97 -127 -115 -85 -22 -172 9
-219 78 -37 56 -43 117 -43 462 l0 330 -135 0 -135 0 0 -327z"/>
<path d="M307 668 c-169 -418 -227 -563 -227 -570 0 -4 296 -8 658 -8 698 0
706 1 800 49 58 30 119 86 157 146 25 39 165 370 165 390 0 3 -348 5 -774 5
-610 0 -775 -3 -779 -12z"/>
</g>
</svg>
