<?xml version="1.0" standalone="no"?>
<!DOCTYPE svg PUBLIC "-//W3C//DTD SVG 20010904//EN"
 "http://www.w3.org/TR/2001/REC-SVG-20010904/DTD/svg10.dtd">
<svg version="1.0" xmlns="http://www.w3.org/2000/svg"
 width="1200.000000pt" height="627.000000pt" viewBox="0 0 1200.000000 627.000000"
 preserveAspectRatio="xMidYMid meet">

<g transform="translate(0.000000,627.000000) scale(0.100000,-0.100000)"
fill="#000000" stroke="none">
<path d="M8390 3440 c0 -82 -3 -150 -6 -150 -3 0 -18 9 -33 19 -42 30 -114 44
-191 38 -116 -10 -191 -61 -242 -165 -30 -63 -32 -74 -32 -172 1 -121 17 -170
81 -241 49 -54 144 -99 211 -99 62 0 137 25 184 62 l37 29 15 -35 c14 -35 17
-36 65 -36 44 0 51 3 56 23 3 12 4 213 3 447 l-3 425 -72 3 -73 3 0 -151z
m-100 -228 c134 -66 133 -328 -2 -398 -35 -18 -121 -18 -158 1 -96 50 -127
231 -59 342 41 66 143 92 219 55z"/>
<path d="M6030 3475 l0 -65 120 0 120 0 2 -357 3 -358 75 0 75 0 5 355 5 355
117 3 116 3 -1 62 -2 62 -318 3 -317 2 0 -65z"/>
<path d="M3770 3509 c-33 -61 -320 -795 -316 -806 4 -10 24 -13 77 -11 l72 3
38 100 37 100 175 3 175 2 32 -82 c53 -142 39 -128 124 -128 41 0 77 4 80 9 5
7 -93 265 -134 356 -5 11 -39 94 -75 185 -36 91 -77 193 -91 228 l-26 62 -79
0 c-69 0 -80 -2 -89 -21z m100 -171 c0 -6 23 -73 52 -150 28 -76 49 -140 47
-142 -2 -2 -55 -6 -117 -8 -84 -2 -112 0 -112 9 0 7 23 73 50 146 28 73 50
139 50 145 0 7 7 12 15 12 8 0 15 -5 15 -12z"/>
<path d="M2654 3499 c-67 -32 -101 -77 -150 -194 -24 -59 -44 -109 -44 -111 0
-2 203 -4 450 -4 420 0 451 1 457 18 6 18 110 278 120 300 4 9 -78 12 -393 12
-377 -1 -401 -2 -440 -21z"/>
<path d="M5095 3431 c-25 -39 -63 -81 -88 -97 -53 -37 -54 -38 -49 -74 4 -27
8 -30 43 -30 l39 0 0 -183 c0 -245 17 -299 110 -348 34 -18 157 -17 195 2 26
12 30 20 33 63 5 72 0 78 -42 61 -49 -21 -99 -19 -120 4 -14 16 -17 44 -17
197 0 99 0 184 0 191 1 8 27 13 79 15 l77 3 0 55 0 55 -77 3 c-74 3 -78 4 -84
28 -4 14 -4 45 -1 70 2 24 2 44 -2 45 -3 0 -16 2 -28 5 -19 3 -31 -8 -68 -65z"/>
<path d="M5668 3340 c-80 -20 -163 -93 -198 -173 -27 -61 -36 -174 -21 -249
54 -257 406 -335 573 -126 55 69 70 123 66 236 -4 112 -24 166 -87 229 -61 61
-122 86 -216 89 -44 2 -97 -1 -117 -6z m172 -129 c19 -10 48 -36 64 -59 24
-34 30 -54 34 -115 7 -110 -26 -185 -99 -222 -36 -19 -112 -19 -149 0 -94 48
-127 208 -68 322 43 84 139 117 218 74z"/>
<path d="M7341 3339 c-80 -24 -140 -81 -183 -175 -20 -42 -23 -65 -23 -159 1
-99 3 -115 27 -161 52 -100 167 -174 271 -174 49 0 139 35 167 65 31 33 44 31
55 -7 10 -32 12 -33 68 -36 l57 -3 0 321 0 320 -54 0 c-51 0 -55 -2 -65 -30
-5 -16 -14 -30 -19 -30 -4 0 -26 13 -48 29 -65 48 -168 64 -253 40z m182 -120
c85 -44 126 -144 105 -259 -19 -106 -75 -160 -167 -160 -108 0 -170 65 -179
189 -7 108 22 179 92 222 35 21 115 25 149 8z"/>
<path d="M8875 3341 c-88 -23 -172 -100 -205 -189 -28 -73 -31 -184 -6 -265
35 -119 170 -217 297 -217 62 0 146 23 190 53 33 22 99 101 99 118 0 5 -34 9
-76 9 -67 0 -80 -3 -106 -25 -25 -21 -40 -25 -92 -25 -78 0 -121 25 -153 90
-38 77 -47 74 212 80 l230 5 3 30 c5 41 -16 142 -39 187 -51 101 -131 150
-249 154 -41 2 -88 0 -105 -5z m159 -128 c22 -10 43 -32 57 -58 24 -45 20 -82
-7 -71 -9 3 -74 6 -146 6 l-130 0 6 26 c24 92 131 140 220 97z"/>
<path d="M6965 3331 c-47 -12 -86 -42 -102 -78 -17 -43 -28 -36 -43 27 l-12
50 -54 0 -54 0 2 -317 3 -318 70 0 70 0 5 195 c7 260 17 280 143 289 l72 6 0
75 0 75 -35 2 c-19 1 -49 -2 -65 -6z"/>
<path d="M9639 3331 c-43 -14 -77 -41 -100 -79 l-22 -37 -16 58 -15 57 -53 0
-53 0 0 -320 0 -321 73 3 72 3 5 200 c3 124 9 208 17 220 25 45 52 59 126 64
l72 6 0 75 0 75 -40 2 c-22 1 -52 -2 -66 -6z"/>
<path d="M4320 3112 c0 -253 8 -292 78 -361 140 -138 395 -90 458 86 9 27 13
101 14 261 l0 222 -69 0 -69 0 -4 -207 c-4 -232 -12 -269 -67 -297 -67 -35
-155 -4 -178 64 -8 22 -12 108 -12 238 l-1 202 -75 0 -75 0 0 -208z"/>
<path d="M2392 3027 c-13 -15 -132 -310 -132 -327 0 -8 105 -10 403 -8 l402 3
45 27 c25 14 55 37 67 50 33 35 127 250 115 262 -3 4 -204 6 -447 6 -349 0
-445 -3 -453 -13z"/>
</g>
</svg>
